<svg xmlns="http://www.w3.org/2000/svg" width="16" height="16" viewBox="0 0 16 16">
  <!-- Background -->
  <rect width="16" height="16" rx="3" fill="#2563eb"/>
  
  <!-- Shield -->
  <path d="M8 1.5C8 1.5 4.5 3 4.5 3V7.5C4.5 10 6 12.5 8 13.5C10 12.5 11.5 10 11.5 7.5V3C11.5 3 8 1.5 8 1.5Z" 
        fill="#ffffff"/>
  
  <!-- Inner shield -->
  <path d="M8 2.5C8 2.5 5.5 3.75 5.5 3.75V7.5C5.5 9.25 6.75 11.25 8 12C9.25 11.25 10.5 9.25 10.5 7.5V3.75C10.5 3.75 8 2.5 8 2.5Z" 
        fill="#1e40af"/>
  
  <!-- Security elements -->
  <circle cx="8" cy="6.5" r="1" fill="#ffffff"/>
  <rect x="7" y="7.5" width="2" height="2" rx="0.25" fill="#ffffff"/>
  <rect x="7.5" y="8" width="1" height="1" fill="#1e40af"/>
</svg>
