<svg xmlns="http://www.w3.org/2000/svg" viewBox="0 0 32 32" fill="none">
  <!-- Background circle -->
  <circle cx="16" cy="16" r="16" fill="#2563eb"/>
  
  <!-- Shield outline -->
  <path d="M16 4L8 8V16C8 20.4183 10.9391 24.2066 15 25.8197C19.0609 24.2066 22 20.4183 22 16V8L16 4Z" 
        fill="#ffffff" stroke="#2563eb" stroke-width="0.5"/>
  
  <!-- Inner shield -->
  <path d="M16 6L10 9V16C10 19.5 12.5 22.5 16 23.5C19.5 22.5 22 19.5 22 16V9L16 6Z" 
        fill="#1e40af"/>
  
  <!-- Security symbol -->
  <path d="M16 10L14 12L16 14L18 12L16 10Z" fill="#ffffff"/>
  <path d="M16 15L14 17L16 19L18 17L16 15Z" fill="#ffffff"/>
  <circle cx="16" cy="16" r="1.5" fill="#ffffff"/>
</svg>
