<svg xmlns="http://www.w3.org/2000/svg" width="32" height="32" viewBox="0 0 32 32">
  <!-- Background -->
  <rect width="32" height="32" rx="6" fill="#2563eb"/>
  
  <!-- Shield -->
  <path d="M16 3C16 3 9 6 9 6V15C9 20 12 25 16 27C20 25 23 20 23 15V6C23 6 16 3 16 3Z" 
        fill="#ffffff"/>
  
  <!-- Inner shield -->
  <path d="M16 5C16 5 11 7.5 11 7.5V15C11 18.5 13.5 22.5 16 24C18.5 22.5 21 18.5 21 15V7.5C21 7.5 16 5 16 5Z" 
        fill="#1e40af"/>
  
  <!-- Security elements -->
  <circle cx="16" cy="13" r="2" fill="#ffffff"/>
  <rect x="14" y="15" width="4" height="4" rx="0.5" fill="#ffffff"/>
  <rect x="15" y="16" width="2" height="2" fill="#1e40af"/>
</svg>
